<svg width="152" height="32" viewBox="0 0 152 32" fill="none" xmlns="http://www.w3.org/2000/svg">
<path d="M19.1487 12.9406C19.9647 13.4986 20.7966 14.0256 21.5696 14.6566C22.4763 15.4788 23.1715 16.5073 23.5965 17.6552C24.0214 18.803 24.1637 20.0363 24.011 21.2507C23.8584 22.4652 23.4153 23.6249 22.7195 24.6318C22.0237 25.6388 21.0954 26.4633 20.0135 27.0355C18.1231 27.9463 16.0466 28.4044 13.9485 28.3735C9.68352 28.3985 5.41772 28.3735 1.14872 28.3925C0.619717 28.3925 0.433803 28.2756 0.436803 27.7086C0.457803 22.7646 0.436428 17.8205 0.452428 12.8765C0.437961 11.9479 0.791937 11.0515 1.4368 10.3832C2.08167 9.71489 2.96533 9.32921 3.89383 9.31055C4.58583 9.21655 5.29384 9.25553 5.97684 9.11053C9.4365 9.56368 12.8354 10.3967 16.1126 11.5945C16.8459 11.8652 17.5771 12.1382 18.3064 12.4135C18.6418 12.481 18.9415 12.6684 19.1487 12.9406Z" fill="#00DCC0"/>
<path d="M19.1488 12.9405C16.5897 11.9163 13.9691 11.0526 11.3026 10.3545C9.57857 9.97747 7.86758 9.53648 6.11458 9.31248C5.88158 9.14348 5.5058 9.38152 5.3348 9.03752C4.6058 8.83752 3.87476 8.6375 3.14876 8.4265C2.37622 8.2413 1.69063 7.79698 1.20589 7.16758C0.721149 6.53819 0.466468 5.76173 0.484698 4.96751C0.422698 3.63651 0.463983 2.30151 0.451983 0.967511C0.451983 0.698511 0.480565 0.521485 0.823565 0.528485C5.94657 0.628485 11.0747 0.312511 16.1927 0.717511C17.1059 0.79544 18.002 1.01332 18.849 1.36351C22.019 2.65251 22.863 5.4385 22.515 8.3325C22.3978 9.3253 22.026 10.271 21.4364 11.0783C20.8467 11.8855 20.0589 12.5269 19.1488 12.9405Z" fill="#125EEC"/>
<path d="M79.8705 4.43951C80.9131 4.45988 81.9387 4.7078 82.8754 5.16589C83.8121 5.62397 84.6377 6.28119 85.2939 7.09155C85.7987 7.75814 86.1536 8.52599 86.3339 9.34252C86.4339 9.73652 86.3205 9.89149 85.9145 9.97649C85.0442 10.1493 84.1845 10.3703 83.3388 10.6385C82.8628 10.7945 82.7288 10.6385 82.5468 10.2385C82.3216 9.75986 82.0026 9.33126 81.6088 8.97802C81.215 8.62478 80.7545 8.35405 80.2543 8.18194C79.7541 8.00983 79.2244 7.93978 78.6967 7.97594C78.1689 8.01211 77.6536 8.15377 77.1816 8.39251C76.871 8.5364 76.6101 8.76931 76.432 9.06164C76.254 9.35397 76.1669 9.69258 76.1816 10.0345C76.1872 10.3639 76.2954 10.6832 76.4911 10.9482C76.6869 11.2131 76.9607 11.4104 77.2738 11.5125C79.2738 12.4225 81.4328 12.8965 83.4008 13.8655C84.7032 14.3701 85.7924 15.3071 86.4858 16.5195C87.1194 17.8883 87.1935 19.4504 86.6928 20.8732C86.1921 22.296 85.1559 23.4672 83.8046 24.1375C82.3307 24.953 80.6494 25.317 78.9701 25.1842C77.2909 25.0514 75.6881 24.4276 74.3608 23.3905C73.6177 22.8069 73.003 22.0762 72.5556 21.244C72.1082 20.4118 71.8376 19.4962 71.7607 18.5545C71.7147 18.2215 71.7736 18.0285 72.1606 17.9545C73.1856 17.7545 74.2107 17.5545 75.2167 17.2775C75.6757 17.1535 75.7454 17.3315 75.8114 17.6955C75.8833 18.1321 75.9938 18.5614 76.1415 18.9785C76.9585 21.1675 78.2897 21.9235 80.5917 21.5125C81.0568 21.4463 81.5108 21.3167 81.9408 21.1275C82.3116 20.9906 82.6308 20.7429 82.8559 20.418C83.0809 20.0931 83.2008 19.7067 83.1986 19.3115C83.2214 18.9044 83.1249 18.4996 82.9208 18.1466C82.7167 17.7936 82.4139 17.5079 82.0497 17.3245C80.784 16.6475 79.4435 16.1206 78.0556 15.7545C76.7809 15.3732 75.5725 14.7982 74.4726 14.0496C71.6976 12.2586 71.7726 7.93855 74.4526 5.91155C75.7896 4.89055 77.2555 4.40451 79.8705 4.43951Z" fill="#101419"/>
<path d="M125.754 11.2385C127.675 9.28753 129.799 8.78249 132.16 9.79249C133.078 10.1683 133.857 10.8183 134.39 11.6538C134.924 12.4892 135.187 13.4691 135.142 14.4595C135.2 17.6995 135.149 20.9425 135.164 24.1835C135.164 24.5925 135.058 24.7285 134.641 24.7145C133.779 24.6845 132.914 24.6785 132.053 24.7145C131.585 24.7355 131.5 24.5615 131.502 24.1345C131.52 21.4165 131.512 18.6975 131.511 15.9785C131.511 15.7695 131.519 15.5595 131.502 15.3525C131.348 13.5745 130.495 12.6655 129.038 12.7205C126.951 12.7995 125.938 13.7315 125.929 15.6205C125.917 18.4205 125.913 21.2145 125.94 24.0115C125.94 24.5365 125.849 24.7485 125.272 24.7115C124.412 24.6585 123.545 24.6765 122.683 24.7115C122.262 24.7265 122.16 24.5805 122.161 24.1755C122.175 19.5488 122.175 14.9221 122.161 10.2955C122.161 9.89548 122.261 9.74047 122.685 9.75647C123.442 9.79971 124.202 9.79773 124.959 9.75049C125.607 9.69749 125.877 9.88548 125.759 10.5505C125.74 10.7794 125.739 11.0094 125.754 11.2385Z" fill="#101419"/>
<path d="M108.982 11.2625C110.082 9.68852 111.342 9.06247 113.031 9.44947C113.426 9.53847 113.54 9.6905 113.462 10.0915C113.297 10.9355 113.156 11.7915 113.051 12.6405C113.004 13.0335 112.917 13.1615 112.478 13.0965C110.378 12.7875 109.311 13.6525 109.254 15.8095C109.183 18.5245 109.193 21.2425 109.22 23.9585C109.226 24.5915 109.039 24.7585 108.437 24.7185C107.604 24.6675 106.764 24.6915 105.928 24.7125C105.588 24.7215 105.484 24.6205 105.484 24.2735C105.494 19.5455 105.494 14.8172 105.484 10.0885C105.484 9.71851 105.584 9.58847 105.963 9.60047C106.746 9.62747 107.533 9.64647 108.314 9.60047C108.873 9.56447 109.067 9.74548 108.989 10.2905C108.967 10.6141 108.965 10.9387 108.982 11.2625Z" fill="#101419"/>
<path d="M52.8928 17.3135C52.8928 19.5625 52.8791 21.8135 52.9041 24.0605C52.9091 24.5505 52.8117 24.7495 52.2717 24.7185C51.4117 24.6695 50.5458 24.6865 49.6838 24.7185C49.2738 24.7315 49.1521 24.6045 49.1531 24.1895C49.1671 19.5608 49.1671 14.9325 49.1531 10.3045C49.1531 9.90449 49.253 9.75047 49.677 9.76347C50.566 9.79047 51.457 9.79647 52.344 9.76347C52.803 9.74547 52.9036 9.90948 52.9006 10.3385C52.8826 12.6585 52.8928 14.9855 52.8928 17.3135Z" fill="#101419"/>
<path d="M118.886 17.2645C118.886 19.5135 118.869 21.7645 118.898 24.0125C118.904 24.5325 118.813 24.7565 118.231 24.7185C117.397 24.6645 116.558 24.6865 115.721 24.7125C115.328 24.7245 115.179 24.6305 115.182 24.2015C115.202 19.5722 115.208 14.9425 115.198 10.3125C115.198 9.8585 115.342 9.74053 115.775 9.75653C116.611 9.78853 117.45 9.79453 118.285 9.75653C118.766 9.73353 118.903 9.86851 118.897 10.3565C118.869 12.6605 118.886 14.9625 118.886 17.2645Z" fill="#101419"/>
<path d="M51.0652 7.4655C49.1652 7.4655 49.1653 7.46552 49.1653 5.57652C49.1653 4.01152 49.1652 4.00647 50.7712 4.01347C51.4462 4.01347 52.3184 3.79348 52.7444 4.12748C53.1974 4.48448 52.8784 5.39652 52.8904 6.06352C52.9144 7.46352 52.8972 7.46348 51.4622 7.46348L51.0652 7.4655Z" fill="#11151A"/>
<path d="M117.11 4.01154C118.886 4.01154 118.886 4.01153 118.885 5.79553C118.885 7.46553 118.885 7.48053 117.247 7.45953C116.578 7.45053 115.688 7.75954 115.303 7.31854C114.976 6.94454 115.203 6.07753 115.203 5.42853C115.203 4.01253 115.203 4.01251 116.64 4.01251L117.11 4.01154Z" fill="#101419"/>
<path d="M5.33423 9.03748C5.58423 9.15548 5.8965 9.1015 6.1145 9.3125H3.89819C4.33019 8.9775 4.89423 9.33648 5.33423 9.03748Z" fill="#59D4DC"/>
<path d="M43.9271 13.9485C44.4223 13.6105 44.8609 13.1964 45.2269 12.7215C45.6965 12.0386 45.9735 11.2418 46.0291 10.4148C46.0847 9.58785 45.9167 8.76118 45.5428 8.0215C45.1816 7.15678 44.5858 6.41035 43.8226 5.86659C43.0593 5.32284 42.1592 5.00347 41.2239 4.94454C38.2239 4.68554 35.2138 4.8965 32.2088 4.8365C31.6918 4.8265 31.6907 5.0785 31.6917 5.4565C31.7004 8.67183 31.7024 11.8869 31.6971 15.1015C31.6971 18.1075 31.6986 21.1135 31.702 24.1195C31.702 24.3645 31.542 24.7195 32.057 24.7115C35.295 24.6305 38.5448 24.9615 41.7708 24.5285C42.9592 24.3812 44.0707 23.8619 44.9461 23.0449C45.8215 22.2278 46.416 21.1549 46.6448 19.9795C47.1718 17.2785 46.3461 15.4405 43.9271 13.9485ZM36.1561 8.34853C37.4111 8.36853 38.6677 8.3355 39.9227 8.3655C40.2248 8.33943 40.5292 8.37868 40.8148 8.48061C41.1004 8.58253 41.3606 8.74474 41.5779 8.95619C41.7953 9.16765 41.9648 9.42345 42.0745 9.70613C42.1843 9.98882 42.2315 10.2918 42.2137 10.5945C42.2295 10.8962 42.1801 11.1978 42.0687 11.4787C41.9573 11.7595 41.7865 12.013 41.5682 12.2219C41.3498 12.4307 41.0891 12.59 40.8035 12.6888C40.518 12.7876 40.2146 12.8237 39.9139 12.7945C39.3139 12.8125 38.7141 12.7945 38.1141 12.7945C37.4601 12.7945 36.8051 12.7735 36.1531 12.8025C35.7531 12.8205 35.6041 12.7205 35.6151 12.2905C35.6451 11.1405 35.6471 9.99049 35.6151 8.83949C35.5941 8.39849 35.7791 8.34149 36.1561 8.34749V8.34853ZM40.7698 20.9635C39.9918 21.0185 39.2071 20.9735 38.4241 20.9735V21.0145C37.6671 21.0145 36.9101 21.0005 36.1541 21.0205C35.7821 21.0305 35.5948 20.9695 35.6058 20.5205C35.6368 19.1385 35.6278 17.7555 35.6058 16.3735C35.6058 16.0075 35.6969 15.8735 36.0819 15.8835C37.6209 15.9085 39.162 15.8685 40.7 15.9155C41.0078 15.9134 41.3127 15.9732 41.597 16.0911C41.8813 16.2091 42.1394 16.383 42.3553 16.6024C42.5712 16.8219 42.7405 17.0824 42.8538 17.3685C42.9672 17.6547 43.0221 17.9608 43.015 18.2685C43.04 19.9595 42.3178 20.8545 40.7698 20.9675V20.9635Z" fill="#101419"/>
<path d="M151.531 9.89454C151.131 9.55354 150.244 9.77354 149.571 9.76954C148.183 9.76054 148.184 9.76958 147.983 11.0856C147.694 10.7927 147.389 10.5166 147.069 10.2586C145.933 9.55327 144.596 9.24075 143.265 9.36903C141.934 9.49731 140.683 10.0593 139.702 10.9686C136.582 13.8966 136.638 19.0136 138.298 21.8306C140.408 25.4106 145.235 26.3005 147.904 23.3195C147.904 23.9895 147.904 24.5795 147.904 25.1705C147.95 25.583 147.906 26.0008 147.772 26.3937C147.638 26.7867 147.418 27.1451 147.129 27.4431C146.84 27.7411 146.489 27.9713 146.1 28.1171C145.712 28.263 145.295 28.3209 144.882 28.2866C144.077 28.3158 143.283 28.0986 142.605 27.664C141.927 27.2293 141.399 26.598 141.09 25.8546C140.584 26.1946 140.128 26.4976 139.674 26.8046C138.159 27.8306 138.144 27.9905 139.428 29.3585C139.464 29.3965 139.504 29.4316 139.541 29.4686C140.284 30.1686 141.163 30.707 142.125 31.05C143.086 31.393 144.108 31.5332 145.127 31.4616C145.991 31.4893 146.852 31.3396 147.656 31.0219C148.46 30.7041 149.191 30.225 149.803 29.614C150.416 29.0031 150.896 28.2732 151.215 27.4694C151.534 26.6657 151.685 25.805 151.659 24.9406C151.659 20.5752 151.658 16.2086 151.654 11.8406C151.653 11.1706 151.952 10.2555 151.531 9.89454ZM147.938 15.9196C147.921 16.3626 147.938 16.8075 147.938 17.2515C147.938 17.6955 147.943 18.1396 147.938 18.5836C147.991 19.2269 147.831 19.8698 147.484 20.4139C147.137 20.9579 146.62 21.373 146.014 21.5955C145.385 21.8622 144.692 21.9381 144.02 21.8137C143.348 21.6892 142.728 21.3699 142.237 20.8956C140.447 19.2676 140.457 14.8446 142.445 13.3806C142.954 12.9657 143.569 12.7025 144.221 12.621C144.873 12.5395 145.534 12.643 146.13 12.9196C146.717 13.1541 147.211 13.5741 147.538 14.1157C147.864 14.6573 148.005 15.2908 147.938 15.9196Z" fill="#101419"/>
<path d="M69.5824 10.2145C69.5824 9.79653 69.4028 9.75053 69.0658 9.76153C68.4908 9.78053 67.9158 9.76653 67.3398 9.76653C66.1018 9.76653 66.1026 9.76651 66.0346 10.9965C66.0346 11.0245 65.9638 11.0485 65.9228 11.0765C65.6339 10.7794 65.3277 10.4996 65.0058 10.2385C62.9008 8.71352 59.4927 9.16254 57.5297 11.0995C54.6437 13.9485 54.5374 18.8365 56.2294 21.7805C58.3834 25.5215 63.2787 26.2355 65.8827 23.2805C65.8827 24.1495 65.9109 24.8516 65.8769 25.5496C65.8831 26.145 65.6858 26.7247 65.3178 27.1927C64.9497 27.6608 64.4325 27.9892 63.8524 28.1235C63.1633 28.3454 62.4258 28.3678 61.7245 28.188C61.0232 28.0082 60.3869 27.6336 59.8896 27.1075C59.5306 26.7455 59.4246 25.9716 58.9316 26.0076C58.4546 26.0446 58.0125 26.5525 57.5595 26.8605C56.0485 27.8855 56.0338 28.0606 57.3178 29.3956C57.3538 29.4336 57.3916 29.4685 57.4296 29.5055C58.2479 30.2625 59.2239 30.829 60.287 31.1642C61.3502 31.4995 62.474 31.5952 63.5785 31.4445C65.153 31.3952 66.6486 30.744 67.7572 29.625C68.8658 28.506 69.5029 27.0044 69.5375 25.4296C69.6385 20.3596 69.5664 15.2865 69.5824 10.2145ZM65.9174 17.1796H65.9076C65.9076 17.7276 65.9378 18.2795 65.9018 18.8245C65.9039 19.445 65.7094 20.0502 65.3461 20.5533C64.9828 21.0563 64.4695 21.4314 63.8798 21.6246C63.2715 21.8778 62.6021 21.9464 61.955 21.822C61.3079 21.6975 60.7116 21.3854 60.2406 20.9246C58.3406 19.1246 58.3694 15.1445 60.2914 13.4695C60.7873 13.0164 61.406 12.7193 62.0697 12.6157C62.7335 12.512 63.4133 12.6062 64.0238 12.8865C64.6309 13.1132 65.1461 13.5339 65.4897 14.0834C65.8332 14.6329 65.9858 15.2805 65.9237 15.9255C65.9077 16.3435 65.9174 16.7616 65.9174 17.1796Z" fill="#101419"/>
<path d="M102.683 13.9635C102.348 12.7819 101.677 11.7226 100.753 10.9132C99.8292 10.1038 98.6909 9.57883 97.4753 9.40154C96.5379 9.21685 95.5684 9.28234 94.6643 9.59148C93.7602 9.90063 92.9535 10.4425 92.3254 11.1625C92.3107 10.9591 92.3107 10.7549 92.3254 10.5515C92.4474 9.8885 92.1756 9.69351 91.5256 9.75151C90.847 9.80543 90.1652 9.80543 89.4866 9.75151C88.9486 9.71451 88.7864 9.8585 88.7864 10.4265C88.8077 17.0705 88.8077 23.7145 88.7864 30.3585C88.7864 30.8865 88.8866 31.1095 89.4656 31.0685C90.1975 31.0044 90.9334 31.0044 91.6653 31.0685C92.3973 31.1455 92.5117 30.8575 92.5007 30.2025C92.4597 27.9415 92.4846 25.6795 92.4846 23.3845C92.6046 23.4325 92.6637 23.4375 92.6897 23.4695C94.6797 25.9355 99.3313 25.6445 101.475 22.7255C102.407 21.489 103.007 20.0349 103.218 18.5015C103.429 16.968 103.245 15.4059 102.683 13.9635ZM98.1223 20.9735C97.632 21.4338 97.0153 21.7369 96.3513 21.8438C95.6873 21.9507 95.0068 21.8566 94.3967 21.5735C93.8169 21.3548 93.3209 20.9583 92.9797 20.441C92.6385 19.9236 92.4691 19.3117 92.4963 18.6925C92.4823 18.1925 92.4963 17.7005 92.4963 17.2035C92.4963 16.7855 92.4963 16.3675 92.4963 15.9495C92.4438 15.2662 92.6203 14.5848 92.9978 14.0128C93.3753 13.4408 93.9323 13.0108 94.5813 12.7905C95.2529 12.5635 95.976 12.5361 96.6628 12.7117C97.3497 12.8872 97.9711 13.2581 98.4514 13.7795C100.049 15.5865 99.9023 19.3535 98.1223 20.9725V20.9735Z" fill="#101419"/>
</svg>
