<svg width="146" height="39" viewBox="0 0 146 39" fill="none" xmlns="http://www.w3.org/2000/svg">
<path d="M98.093 15.795L91.5378 21.952L98.6062 30.076C96.8552 30.076 95.338 30.106 93.824 30.046C93.575 30.036 93.3092 29.657 93.1062 29.404C91.2982 27.161 89.5061 24.904 87.4861 22.697V30.005H83.7859V9.26001H87.4182V21.439L87.7068 21.596C88.1848 21.065 88.6579 20.529 89.1409 20.003C90.3679 18.669 91.5851 17.325 92.8411 16.018C93.1003 15.7287 93.4515 15.5377 93.8352 15.477C95.1712 15.415 96.5118 15.452 97.8508 15.452L98.093 15.795Z" fill="#8989A2"/>
<path d="M131.398 30.096V15.523H134.898V17.48L135.272 17.749C135.296 17.5539 135.355 17.3647 135.446 17.19C136.164 16.2251 137.176 15.5186 138.33 15.1761C139.483 14.8336 140.717 14.8736 141.846 15.29C142.915 15.6717 143.836 16.3817 144.478 17.3185C145.119 18.2553 145.448 19.371 145.418 20.506C145.455 23.658 145.427 26.811 145.427 30.095C144.308 30.095 143.273 30.141 142.249 30.057C142.038 30.04 141.708 29.542 141.702 29.257C141.656 27.073 141.678 24.889 141.675 22.704C141.675 22.304 141.669 21.897 141.646 21.495C141.513 19.144 140.58 18.034 138.738 18.027C138.265 18.0071 137.793 18.0846 137.351 18.2547C136.909 18.4248 136.507 18.6838 136.17 19.0158C135.832 19.3477 135.566 19.7454 135.389 20.1842C135.211 20.6231 135.126 21.0938 135.138 21.567C135.045 24.017 135.054 26.473 135.101 28.925C135.119 29.834 134.891 30.206 133.934 30.111C133.111 30.031 132.274 30.096 131.398 30.096Z" fill="#8989A2"/>
<path d="M70.03 30.03H66.4568V15.522H69.9031C69.9411 16.208 69.9771 16.853 70.0271 17.733C70.4414 17.0185 71.0115 16.4067 71.6951 15.9432C72.3786 15.4797 73.1578 15.1764 73.9749 15.056C77.7099 14.621 80.334 16.85 80.427 20.626C80.498 23.514 80.4269 26.405 80.4529 29.294C80.4579 29.909 80.2529 30.131 79.6379 30.106C78.7049 30.068 77.7702 30.096 76.6902 30.096C76.6902 29.582 76.6962 29.16 76.6902 28.738C76.6472 26.054 76.6399 23.369 76.5369 20.687C76.5567 20.0877 76.3651 19.5005 75.9954 19.0284C75.6256 18.5563 75.1015 18.2294 74.5149 18.105C73.8492 17.8844 73.1284 17.898 72.4714 18.1433C71.8145 18.3887 71.2612 18.8511 70.9031 19.454C70.3962 20.4251 70.1104 21.4964 70.0662 22.591C69.9492 25.039 70.03 27.488 70.03 30.03Z" fill="#8989A2"/>
<path d="M40.4919 18.27H38.0559V15.484H40.675C40.675 13.768 40.675 12.171 40.675 10.573C40.675 9.268 40.6751 9.26799 41.9841 9.26599C44.3611 9.26599 44.3601 9.26601 44.3621 11.622C44.3621 12.7647 44.3684 13.9073 44.3811 15.05C44.4055 15.1749 44.4445 15.2964 44.4978 15.412H48.1541V18.239H44.4329C44.4059 18.709 44.366 19.094 44.365 19.479C44.365 21.394 44.3359 23.311 44.3899 25.225C44.4429 27.092 45.1611 27.653 47.0261 27.419C47.3211 27.382 47.6198 27.37 47.8918 27.348C47.9368 27.427 47.967 27.456 47.968 27.486C48.048 30.196 48.7039 30.286 45.4939 30.349C42.2589 30.414 40.718 28.914 40.616 25.685C40.551 23.603 40.5798 21.519 40.5598 19.436C40.5558 19.076 40.5179 18.718 40.4919 18.27Z" fill="#8989A2"/>
<path d="M27.8289 15.956C27.6469 16.111 27.5747 16.169 27.5067 16.232C27.2787 16.444 27.0514 16.6567 26.824 16.87C26.6149 16.6238 26.4372 16.3524 26.2957 16.062C26.0437 15.334 25.896 14.569 25.638 13.844C25.2003 12.3563 24.4434 10.9818 23.4207 9.81601C22.4207 12.208 22.4207 12.208 21.8997 12.463C21.716 10.9815 21.4556 9.51046 21.119 8.056C20.712 6.597 20.039 5.21201 19.429 3.65601L18.2371 5.76202C17.7201 4.53202 17.3658 3.48701 16.8528 2.52701C16.3984 1.47193 15.6223 0.587466 14.6351 0C14.4351 5.153 11.8779 8.83401 7.59991 10.152L7.06085 8.22202C5.70817 9.39383 4.71384 10.9239 4.19269 12.636C3.66669 14.283 3.29271 15.978 2.83771 17.68L2.2381 17.401C1.46886 19.1283 1.0014 20.9747 0.85675 22.86C0.19475 30.492 6.48907 37.913 13.7811 38.003C17.0357 38.1609 20.2314 37.0938 22.7381 35.012C28.7431 29.878 29.1269 23.194 27.8289 15.956ZM20.5067 31.891C20.1958 31.9814 19.9098 32.1409 19.6693 32.3575C19.4287 32.5741 19.2403 32.8423 19.118 33.142C18.6391 34.1287 17.8575 34.9369 16.8875 35.4489C15.9176 35.961 14.8098 36.1502 13.7249 35.989C12.622 35.806 11.6162 35.2473 10.8782 34.4074C10.1403 33.5676 9.7157 32.4983 9.67609 31.381C9.62957 31.0137 9.44074 30.6791 9.15069 30.449C8.26238 29.9197 7.56561 29.1212 7.16144 28.1694C6.75726 27.2176 6.66662 26.1618 6.90265 25.155C7.06026 24.2032 7.50191 23.3211 8.16925 22.6243C8.83659 21.9276 9.69873 21.4485 10.6429 21.25C11.6152 20.9497 12.6595 20.9803 13.6126 21.3369C14.5657 21.6936 15.3737 22.3562 15.91 23.221C15.987 23.327 16.0741 23.427 16.1561 23.53L16.2557 23.247C17.5093 23.0243 18.7845 22.9458 20.056 23.013C21.0091 23.1833 21.8737 23.6776 22.5042 24.4124C23.1347 25.1471 23.4923 26.0771 23.5159 27.045C23.6213 28.072 23.3829 29.1049 22.8382 29.9819C22.2935 30.8588 21.473 31.5303 20.5057 31.891H20.5067Z" fill="#8989A2"/>
<path d="M113.574 22.39C113.53 18.49 111.253 15.672 107.683 15.09C103.604 14.42 99.7946 16.474 98.5926 20.072C97.0656 24.641 99.2577 29.672 104.881 30.395C107.948 30.789 110.672 30.195 112.871 27.617C112.317 27.3274 111.779 27.0075 111.26 26.659C110.993 26.4457 110.663 26.3273 110.322 26.3224C109.98 26.3176 109.647 26.4265 109.374 26.632C108.49 27.0976 107.528 27.394 106.535 27.506C105.993 27.572 105.443 27.5288 104.918 27.379C104.393 27.2291 103.903 26.9756 103.478 26.6335C103.052 26.2913 102.7 25.8674 102.441 25.3868C102.182 24.9062 102.021 24.3785 101.97 23.835H113.57C113.574 23.258 113.58 22.824 113.574 22.39ZM102.042 21.274C102.023 20.6727 102.179 20.0789 102.49 19.5643C102.802 19.0496 103.255 18.6362 103.797 18.374C104.457 17.9331 105.23 17.6901 106.023 17.6738C106.817 17.6575 107.599 17.8685 108.277 18.282C108.788 18.5869 109.203 19.0307 109.473 19.5616C109.742 20.0926 109.855 20.6891 109.8 21.282L102.042 21.274Z" fill="#8989A2"/>
<path d="M128.698 19.638C128.655 18.6291 128.267 17.6658 127.598 16.9097C126.928 16.1535 126.019 15.6504 125.023 15.485C123.39 15.1778 121.72 15.1078 120.066 15.277C118.412 15.4493 116.867 16.1842 115.689 17.359L117.56 19.476C117.944 19.218 118.213 19.019 118.498 18.847C119.245 18.3252 120.108 17.9966 121.013 17.8905C121.917 17.7844 122.833 17.9041 123.68 18.239C123.958 18.3195 124.217 18.4546 124.441 18.6364C124.666 18.8182 124.852 19.0431 124.989 19.2978C125.126 19.5525 125.211 19.8319 125.238 20.1198C125.266 20.4076 125.236 20.698 125.149 20.974C124.701 20.999 124.235 21.029 123.77 21.052C121.353 21.172 118.918 21.264 116.77 22.57C116.169 22.9125 115.667 23.4057 115.313 24.001C114.96 24.5963 114.767 25.2733 114.755 25.9654C114.742 26.6576 114.91 27.3411 115.241 27.9488C115.573 28.5566 116.057 29.0677 116.645 29.432C117.94 30.2284 119.459 30.5821 120.972 30.44C121.813 30.4129 122.638 30.2094 123.395 29.8426C124.152 29.4759 124.824 28.954 125.366 28.311C125.417 29.011 125.452 29.495 125.491 30.031H129.036C128.937 26.518 128.935 23.07 128.698 19.638ZM123.898 27.038C123.261 27.482 122.515 27.7445 121.74 27.7973C120.965 27.8502 120.19 27.6914 119.498 27.338C119.238 27.2167 119.014 27.0282 118.85 26.7918C118.686 26.5554 118.589 26.2796 118.567 25.9929C118.545 25.7061 118.6 25.4188 118.726 25.1604C118.853 24.9021 119.046 24.682 119.285 24.523C119.754 24.1449 120.304 23.8825 120.893 23.757C122.293 23.529 123.724 23.441 125.247 23.287C125.444 24.937 125.141 26.224 123.895 27.034L123.898 27.038Z" fill="#8989A2"/>
<path d="M57.3539 15.049C52.3149 14.916 48.9219 17.93 48.8319 22.62C48.8187 24.7152 49.6381 26.7299 51.1103 28.2208C52.5824 29.7117 54.5868 30.5568 56.682 30.57C58.7773 30.5833 60.7917 29.7637 62.2826 28.2915C63.7735 26.8194 64.6185 24.8152 64.6318 22.72C64.6639 21.7369 64.5003 20.7572 64.1508 19.8377C63.8013 18.9182 63.2731 18.0772 62.5961 17.3636C61.9191 16.65 61.1068 16.078 60.2069 15.6807C59.3071 15.2833 58.3374 15.0686 57.3539 15.049ZM60.6029 24.397C60.489 24.9244 60.2685 25.423 59.955 25.8621C59.6415 26.3012 59.2415 26.6716 58.7797 26.9505C58.3179 27.2295 57.8035 27.4111 57.269 27.4843C56.7344 27.5575 56.1906 27.5206 55.6708 27.376C53.7958 26.89 52.6051 25.015 52.6181 22.57C52.6361 19.306 54.9991 17.28 57.8901 18.05C60.1821 18.66 61.3819 21.467 60.6029 24.397Z" fill="#8989A2"/>
<path d="M17.3645 28.113C17.7645 27.68 18.0105 27.196 18.3645 27.092C18.5776 27.0485 18.7981 27.0535 19.009 27.1064C19.22 27.1594 19.4164 27.259 19.5837 27.398C19.8527 27.664 19.8456 28.208 20.0066 28.805L17.3645 28.113Z" fill="#8989A2"/>
<path d="M11.017 27.098C11.007 26.174 11.3918 25.68 12.2558 25.709C13.0558 25.736 13.4489 26.19 13.3559 27.098H11.017Z" fill="#8989A2"/>
</svg>
